# xmcd CD database file
# Copyright (C) 1993-1998 Ti Kan
#
# Track frame offsets:
#	182
#	16692
#	29967
#	44572
#	61240
#	81157
#	98107
#	111310
#	126902
#	140610
#	155857
#	174737
#	190145
#	210295
#	226785
#
# Disc length: 3265 seconds
#
# Revision: 1
# Processed by: cddbd v1.4b41PL1 Copyright (c) Steve Scherf et al.
# Submitted via: CDValet v3.31 - Copyright (c) 1997 Greg Leichner
#
DISCID=d10cbf0f
DTITLE=Tião Carreiro e Pardinho - Modas de viola - (Som da Terr
DTITLE=a)
DYEAR=1900
DGENRE=
TTITLE0=Terra roxa
TTITLE1=Rei do gado
TTITLE2=Herói sem medalha
TTITLE3=Ferreirinha
TTITLE4=Gato de três cores
TTITLE5=Catimbau
TTITLE6=Boiadeiro punho de aço
TTITLE7=Preto inocente
TTITLE8=O mineiro e o italiano
TTITLE9=Travessia do Araguaia
TTITLE10=A volta que o mundo dá
TTITLE11=Boiada cuiabana
TTITLE12=Exemplos de humildade
TTITLE13=Três cuiabanas
TTITLE14=Mineiro do pé quente
EXTD=
EXTT0=
EXTT1=
EXTT2=
EXTT3=
EXTT4=
EXTT5=
EXTT6=
EXTT7=
EXTT8=
EXTT9=
EXTT10=
EXTT11=
EXTT12=
EXTT13=
EXTT14=
PLAYORDER=
